<svg width="309" height="194" xmlns="http://www.w3.org/2000/svg">
 <!-- Created with SVG-edit - http://svg-edit.googlecode.com/ -->
 <g>
  <title>Layer 1</title>
  <circle id="svg_6" r="32.01563" cy="153" cx="86" stroke-linecap="null" stroke-linejoin="null" stroke-dasharray="null" stroke-width="5" stroke="#000000" fill="none"/>
  <circle id="svg_7" r="32.01563" cy="152" cx="227" stroke-linecap="null" stroke-linejoin="null" stroke-dasharray="null" stroke-width="5" stroke="#000000" fill="none"/>
  <path id="svg_8" d="m36,148c-0.33333,-30 30.33334,-44 50,-42c14.33334,-3 42.66666,11 43,39l51,1c0,-30 22,-43 48,-42c28.66669,-1.66667 42.33334,19.66667 41,40l32,1l-2,-66l-37,0l-58,-70l-92,0l-61,66l-42,0l0,73l27,0z" stroke-linecap="null" stroke-linejoin="null" stroke-dasharray="null" stroke-width="5" stroke="#000000" fill="none"/>
  <line id="svg_9" y2="78" x2="206" y1="78" x1="253" stroke-linecap="null" stroke-linejoin="null" stroke-dasharray="null" stroke-width="5" stroke="#000000" fill="none"/>
  <line id="svg_10" y2="80" x2="204" y1="18" x1="203" stroke-linecap="null" stroke-linejoin="null" stroke-dasharray="null" stroke-width="5" stroke="#000000" fill="none"/>
 </g>
</svg>
