<svg width="280" height="290" xmlns="http://www.w3.org/2000/svg">
  <!--

      Copyright 2013 Mark T. Tomczak

      Licensed under the Apache License, Version 2.0 (the "License");
      you may not use this file except in compliance with the License.
      You may obtain a copy of the License at

      http://www.apache.org/licenses/LICENSE-2.0

      Unless required by applicable law or agreed to in writing, software
      distributed under the License is distributed on an "AS IS" BASIS,
      WITHOUT WARRANTIES OR CONDITIONS OF ANY KIND, either express or implied.
      See the License for the specific language governing permissions and
      limitations under the License.
  -->
  <!-- Created with SVG-edit - http://svg-edit.googlecode.com/ -->
  <title>rocket</title>
  <g>
    <title>Layer 1</title>
    <path fill="none" stroke="#000000" stroke-width="5" stroke-dasharray="null" stroke-linejoin="null" stroke-linecap="null" d="m18.5,224c1,0 -5,-25 16,-25c21,0 19,19 21,25" id="svg_5"/>
    <path fill="none" stroke="#000000" stroke-width="5" stroke-dasharray="null" stroke-linejoin="null" stroke-linecap="null" d="m55.5,222c1,0 -5,-25 16,-25c21,0 19,19 21,25" id="svg_7"/>
    <path fill="none" stroke="#000000" stroke-width="5" stroke-dasharray="null" stroke-linejoin="null" stroke-linecap="null" d="m93.5,221c1,0 -5,-25 16,-25c21,0 19,19 21,25" id="svg_8"/>
    <path fill="none" stroke-width="5" stroke-dasharray="null" stroke-linejoin="null" stroke-linecap="null" d="m17.5,220c1.96493,18 1.96493,25 14.73694,26c12.77202,1 73.68469,3 77.61455,1c3.92987,-2 20.63171,-11 19.64926,-27" id="svg_9" stroke="#000000"/>
    <path id="svg_10" d="m19.5,106c-1,-23 3,-34 28,-32c25,2 24,14 24,15c0,1 6,-36 29,-35c23,1 23,49 23,55c0,6 3,-33 24,-33c21,0 24,28 24,32c0,4 0,35 -15,33c-15,-2 -113,-5 -113.5,-5c-0.5,0 -22.5,-7 -23.5,-30z" stroke-linecap="null" stroke-linejoin="null" stroke-dasharray="null" stroke-width="5" stroke="#000000" fill="none"/>
    <path id="svg_11" d="m139.5,178c0,-30 18,-24 23,-22c5,2 16,5 17,19c1,14 -4,-50 26,-49c30,1 26,43 25.5,43c-0.5,0 -2.5,-27 13.5,-25c16,2 18,17 18,23c0,6 -1,24 -17,24c-16,0 -71,4 -86,4c-15,0 -20,-17 -20,-17z" stroke-linecap="null" stroke-linejoin="null" stroke-dasharray="null" stroke-width="5" stroke="#000000" fill="none"/>
  </g>
</svg>
