<svg width="180" height="160" xmlns="http://www.w3.org/2000/svg">
 <!-- Created with SVG-edit - http://svg-edit.googlecode.com/ -->
 <g>
  <title>Layer 1</title>
  <path stroke="#000000" id="svg_1" d="m58.815,71c0,0 -9.23258,84 29.37637,84c38.60874,0 31.89443,-87.0546 31.89443,-87.0546" fill-opacity="0" stroke-linecap="null" stroke-linejoin="null" stroke-dasharray="null" stroke-width="5" fill="#000fef"/>
  <ellipse id="svg_6" ry="50.5" rx="20" cy="62" cx="39" fill-opacity="0" stroke-linecap="null" stroke-linejoin="null" stroke-dasharray="null" stroke-width="5" stroke="#000000" fill="#000fef"/>
  <path fill="#000fef" stroke-width="5" stroke-dasharray="null" stroke-linejoin="null" stroke-linecap="null" fill-opacity="0" d="m56,32c0,0 2.0625,-24.95854 33,-25.99848c30.9375,-1.03993 36.09375,18.71891 36.09375,18.71891" id="svg_2" stroke="#000000"/>
  <ellipse fill="#000fef" stroke="#000000" stroke-width="5" stroke-dasharray="null" stroke-linejoin="null" stroke-linecap="null" fill-opacity="0" cx="69" cy="58" id="svg_7" rx="5" ry="5"/>
  <ellipse fill="#000fef" stroke="#000000" stroke-width="5" stroke-dasharray="null" stroke-linejoin="null" stroke-linecap="null" fill-opacity="0" cx="87" cy="119" id="svg_8" rx="3"/>
  <ellipse fill="#000fef" stroke="#000000" stroke-width="5" stroke-dasharray="null" stroke-linejoin="null" stroke-linecap="null" fill-opacity="0" cx="85" cy="116" id="svg_9"/>
  <ellipse fill="#000fef" stroke="#000000" stroke-width="5" stroke-dasharray="null" stroke-linejoin="null" stroke-linecap="null" fill-opacity="0" cx="140" cy="59.5" rx="20" ry="50.5" id="svg_13"/>
  <ellipse stroke="#000000" fill="#000fef" stroke-width="5" stroke-dasharray="null" stroke-linejoin="null" stroke-linecap="null" fill-opacity="0" cx="108" cy="58" rx="5" ry="5" id="svg_15"/>
  <ellipse fill="#000fef" stroke="#000000" stroke-width="5" stroke-dasharray="null" stroke-linejoin="null" stroke-linecap="null" fill-opacity="0" cx="98" cy="221" id="svg_5"/>
  <path fill="#000fef" stroke="#000000" stroke-width="5" stroke-dasharray="null" stroke-linejoin="null" stroke-linecap="null" fill-opacity="0" d="m76,116c0,0 21,0 21,0c0,0 -11,15 -11,15c0,0 -10,-15 -10,-15z" id="svg_10"/>
  <line fill="none" stroke="#000000" stroke-width="5" stroke-dasharray="null" stroke-linejoin="null" stroke-linecap="null" fill-opacity="0" x1="87" y1="130" x2="86" y2="152" id="svg_12"/>
 </g>
</svg>
