<svg width="250" height="250" xmlns="http://www.w3.org/2000/svg">
 <!-- Created with SVG-edit - http://svg-edit.googlecode.com/ -->
 <g>
  <title>Layer 1</title>
  <path id="svg_3" d="m44,107.5c-19,-17 4,-68 75,-69c71,-1 102,41.75 86,63.5c-16,21.75 -44.75,22.375 -84.5,22.0625c-39.75,-0.3125 -57.5,0.4375 -76.5,-16.5625z" fill-opacity="0" stroke-width="5" stroke="#000000" fill="#ff0000"/>
  <path id="svg_4" d="m114,124.5c0,0 22,4 21,24c-1,20 -20,22 -20,21.5c0,-0.5 -16,-1.5 -20,12.5c-4,14 6,32 28,33" fill-opacity="0" stroke-width="5" stroke="#000000" fill="#ff0000"/>
  <path id="svg_7" d="m169,122.5c0,0 24,12 21,30c-3,18 -20,21 -16,46c4,25 11,19 11,18.5" fill-opacity="0" stroke-linecap="null" stroke-linejoin="null" stroke-dasharray="null" stroke-width="5" stroke="#000000" fill="#ff0000"/>
  <path id="svg_8" d="m54,112.5c0,0 -9,6 -10,16c-1,10 1,26 5,34c4,8 14,17 10,33c-4,16 -7,14 -13,14" fill-opacity="0" stroke-linecap="null" stroke-linejoin="null" stroke-dasharray="null" stroke-width="5" stroke="#000000" fill="#ff0000"/>
 </g>
</svg>
