<svg width="210" height="310" xmlns="http://www.w3.org/2000/svg">
 <!-- Created with SVG-edit - http://svg-edit.googlecode.com/ -->
 <g>
  <title>Layer 1</title>
  <path fill="#000fef" stroke="#000000" stroke-width="5" fill-opacity="0" d="m36,117c0,0 -53,-42 -18,-61c35,-19 53,11 53,11" id="svg_16"/>
  <path fill="#000fef" stroke="#000000" stroke-width="5" stroke-dasharray="null" stroke-linejoin="null" stroke-linecap="null" fill-opacity="0" d="m70,65c0,0 -11,-65 15,-55c26,10 29,46 29,46c0,0 -12,-64 28,-48c40,16 12,51 12,51c0,0 51,-27 48,22c-3,49 -22,52 -22,52" id="svg_17"/>
  <path fill="#000fef" stroke="#000000" stroke-width="5" stroke-dasharray="null" stroke-linejoin="null" stroke-linecap="null" fill-opacity="0" d="m60,108c0,0 -19,-11 -27,8c-8,19 5,29 5,29" id="svg_18"/>
  <path fill="#000fef" stroke="#000000" stroke-width="5" stroke-dasharray="null" stroke-linejoin="null" stroke-linecap="null" fill-opacity="0" d="m142,123c0,0 18,-26 35,-1c17,25 -22,37 -22,37" id="svg_19"/>
  <path fill="#000fef" stroke="#000000" stroke-width="5" stroke-dasharray="null" stroke-linejoin="null" stroke-linecap="null" fill-opacity="0" d="m83,100c0,0 0,-40 24,-34c24,6 15,41 15,41" id="svg_21"/>
  <path fill="#000fef" stroke="#000000" stroke-width="5" stroke-dasharray="null" stroke-linejoin="null" stroke-linecap="null" fill-opacity="0" d="m62,126c0,0 -38,16 -20,35c18,19 42,8 42,8" id="svg_22"/>
  <path fill="#000fef" stroke="#000000" stroke-width="5" stroke-dasharray="null" stroke-linejoin="null" stroke-linecap="null" fill-opacity="0" d="m143,135c0,0 26,40 7,47c-19,7 -31,-21 -31,-21" id="svg_23"/>
  <path fill="#000fef" stroke="#000000" stroke-width="5" stroke-dasharray="null" stroke-linejoin="null" stroke-linecap="null" fill-opacity="0" d="m78,144c0,0 25,87 0,112c-25,25 -32,36 -32,36" id="svg_24"/>
  <path fill="#000fef" stroke="#000000" stroke-width="5" stroke-dasharray="null" stroke-linejoin="null" stroke-linecap="null" fill-opacity="0" d="m126,140c0,0 -30,57 -7,104c23,47 35,47 35,47" id="svg_25"/>
  <line fill="none" stroke-width="5" stroke-dasharray="null" stroke-linejoin="null" stroke-linecap="null" fill-opacity="0" x1="47" y1="288" x2="86" y2="278" id="svg_26" stroke="#000000"/>
  <path fill="none" stroke="#000000" stroke-width="5" stroke-dasharray="null" stroke-linejoin="null" stroke-linecap="null" fill-opacity="0" d="m153,292c0,0 -32,-16 -32,-16c0,0 -12,27 -12,27c0,0 -24,-29 -24,-29" id="svg_27"/>
 </g>
</svg>
